ply
format ascii 1.0
comment VCGLIB generated
element vertex 288
property float x
property float y
property float z
property float nx
property float ny
property float nz
property float texture_u
property float texture_v
element face 96
property list uchar int vertex_indices
end_header
-25 12.5 -42.45442 -0.6666667 -0.6666667 0.3333333 0.125977 0.250977
-25 17.5 -42.45442 -0.4082483 0.4082483 0.8164966 0.124023 0.372642
25 12.5 -42.45442 0.4082483 -0.4082483 0.8164966 0.002358 0.250977
25 17.5 -42.45442 0.6666667 0.6666667 0.3333333 0.124023 0.250977
25 12.5 -47.45442 0.6666667 -0.6666667 -0.3333333 0.811523 0.127358
25 17.5 -47.45442 0.4082483 0.4082483 -0.8164966 0.811523 0.155273
-25 12.5 -47.45442 -0.4082483 -0.4082483 -0.8164966 0.000977 0.497642
-25 17.5 -47.45442 -0.6666667 0.6666667 -0.3333333 0.000977 0.375977
-25 12.5 47.20702 -0.6666667 -0.6666667 0.3333333 0.250977 0.374023
-25 17.5 47.20702 -0.4082483 0.4082483 0.8164966 0.372642 0.375977
25 12.5 47.20702 0.4082483 -0.4082483 0.8164966 0.250977 0.497642
25 17.5 47.20702 0.6666667 0.6666667 0.3333333 0.250977 0.375977
25 12.5 42.20702 0.6666667 -0.6666667 -0.3333333 0.814858 0.125977
25 17.5 42.20702 0.4082483 0.4082483 -0.8164966 0.842773 0.125977
-25 12.5 42.20702 -0.4082483 -0.4082483 -0.8164966 0.497642 0.499023
-25 17.5 42.20702 -0.6666667 0.6666667 -0.3333333 0.375977 0.499023
-2.5 12.5 45 -0.6666667 -0.6666667 0.3333333 0.782227 0.188477
-2.5 17.5 45 -0.4082483 0.4082483 0.8164966 0.780273 0.216392
2.5 12.5 45 0.4082483 -0.4082483 0.8164966 0.752358 0.188477
2.5 17.5 45 0.6666667 0.6666667 0.3333333 0.780273 0.188477
2.5 12.5 -45 0.6666667 -0.6666667 -0.3333333 0.497642 0.249023
2.5 17.5 -45 0.4082483 0.4082483 -0.8164966 0.375977 0.249023
-2.5 12.5 -45 -0.4082483 -0.4082483 -0.8164966 0.750977 0.247642
-2.5 17.5 -45 -0.6666667 0.6666667 -0.3333333 0.750977 0.219727
-35 23.75879 55 -0.6666667 -0.6666667 0.3333333 0.812500 0.061119
-35 26.25879 55 -0.4082483 0.4082483 0.8164966 0.874023 0.002358
35 23.75879 55 0.4082483 -0.4082483 0.8164966 0.874023 0.122642
35 26.25879 55 0.6666667 0.6666667 0.3333333 0.813881 0.062500
35 23.75879 -55 0.6666667 -0.6666667 -0.3333333 0.936119 0.062500
35 26.25879 -55 0.4082483 0.4082483 -0.8164966 0.877358 0.000977
-35 23.75879 -55 -0.4082483 -0.4082483 -0.8164966 0.997642 0.000977
-35 26.25879 -55 -0.6666667 0.6666667 -0.3333333 0.937500 0.061119
-30 -25 47.5 -0.6666667 -0.6666667 0.3333333 0.375977 0.000977
-30 25 47.5 -0.4082483 0.4082483 0.8164966 0.374023 0.122642
-25 -25 47.5 0.4082483 -0.4082483 0.8164966 0.252358 0.000977
-25 25 47.5 0.6666667 0.6666667 0.3333333 0.374023 0.000977
-25 -25 42.5 0.6666667 -0.6666667 -0.3333333 0.250977 0.247642
-25 25 42.5 0.4082483 0.4082483 -0.8164966 0.250977 0.125977
-30 -25 42.5 -0.4082483 -0.4082483 -0.8164966 0.502358 0.250977
-30 25 42.5 -0.6666667 0.6666667 -0.3333333 0.624023 0.250977
25 -25 47.5 -0.6666667 -0.6666667 0.3333333 0.500977 0.124023
25 25 47.5 -0.4082483 0.4082483 0.8164966 0.622642 0.125977
30 -25 47.5 0.4082483 -0.4082483 0.8164966 0.500977 0.247642
30 25 47.5 0.6666667 0.6666667 0.3333333 0.500977 0.125977
30 -25 42.5 0.6666667 -0.6666667 -0.3333333 0.747642 0.249023
30 25 42.5 0.4082483 0.4082483 -0.8164966 0.625977 0.249023
25 -25 42.5 -0.4082483 -0.4082483 -0.8164966 0.750977 0.497642
25 25 42.5 -0.6666667 0.6666667 -0.3333333 0.750977 0.375977
-30 -25 -42.5 -0.6666667 -0.6666667 0.3333333 0.624023 0.499023
-30 25 -42.5 -0.4082483 0.4082483 0.8164966 0.625977 0.377358
-25 -25 -42.5 0.4082483 -0.4082483 0.8164966 0.747642 0.499023
-25 25 -42.5 0.6666667 0.6666667 0.3333333 0.625977 0.499023
-25 -25 -47.5 0.6666667 -0.6666667 -0.3333333 0.749023 0.252358
-25 25 -47.5 0.4082483 0.4082483 -0.8164966 0.749023 0.374023
-30 -25 -47.5 -0.4082483 -0.4082483 -0.8164966 0.997642 0.249023
-30 25 -47.5 -0.6666667 0.6666667 -0.3333333 0.875977 0.249023
25 -25 -42.5 -0.6666667 -0.6666667 0.3333333 0.999023 0.375977
25 25 -42.5 -0.4082483 0.4082483 0.8164966 0.877358 0.374023
30 -25 -42.5 0.4082483 -0.4082483 0.8164966 0.999023 0.252358
30 25 -42.5 0.6666667 0.6666667 0.3333333 0.999023 0.374023
30 -25 -47.5 0.6666667 -0.6666667 -0.3333333 0.752358 0.250977
30 25 -47.5 0.4082483 0.4082483 -0.8164966 0.874023 0.250977
25 -25 -47.5 -0.4082483 -0.4082483 -0.8164966 0.749023 0.002358
25 25 -47.5 -0.6666667 0.6666667 -0.3333333 0.749023 0.124023
25 12.5 -42.45442 0.4082483 -0.4082483 0.8164966 0.247642 0.250977
-25 17.5 -42.45442 -0.4082483 0.4082483 0.8164966 0.125977 0.372642
25 17.5 -42.45442 0.6666667 0.6666667 0.3333333 0.783608 0.155273
25 12.5 -47.45442 0.6666667 -0.6666667 -0.3333333 0.811523 0.185142
25 17.5 -42.45442 0.6666667 0.6666667 0.3333333 0.783608 0.157227
25 12.5 -42.45442 0.4082483 -0.4082483 0.8164966 0.811523 0.157227
25 17.5 -47.45442 0.4082483 0.4082483 -0.8164966 0.122642 0.375977
-25 12.5 -47.45442 -0.4082483 -0.4082483 -0.8164966 0.000977 0.252358
25 17.5 -47.45442 0.4082483 0.4082483 -0.8164966 0.122642 0.374023
25 12.5 -47.45442 0.6666667 -0.6666667 -0.3333333 0.000977 0.374023
-25 12.5 -42.45442 -0.6666667 -0.6666667 0.3333333 0.752358 0.125977
-25 17.5 -42.45442 -0.4082483 0.4082483 0.8164966 0.780273 0.125977
-25 17.5 -47.45442 -0.6666667 0.6666667 -0.3333333 0.780273 0.153892
-25 12.5 -42.45442 -0.6666667 -0.6666667 0.3333333 0.810142 0.125977
-25 17.5 -47.45442 -0.6666667 0.6666667 -0.3333333 0.782227 0.153892
-25 12.5 -47.45442 -0.4082483 -0.4082483 -0.8164966 0.782227 0.125977
25 17.5 -42.45442 0.6666667 0.6666667 0.3333333 0.000977 0.247642
25 17.5 -47.45442 0.4082483 0.4082483 -0.8164966 0.000977 0.125977
-25 17.5 -47.45442 -0.6666667 0.6666667 -0.3333333 0.122642 0.125977
25 17.5 -42.45442 0.6666667 0.6666667 0.3333333 0.000977 0.002358
-25 17.5 -47.45442 -0.6666667 0.6666667 -0.3333333 0.122642 0.124023
-25 17.5 -42.45442 -0.4082483 0.4082483 0.8164966 0.000977 0.124023
25 12.5 -47.45442 0.6666667 -0.6666667 -0.3333333 0.247642 0.249023
25 12.5 -42.45442 0.4082483 -0.4082483 0.8164966 0.125977 0.249023
-25 12.5 -42.45442 -0.6666667 -0.6666667 0.3333333 0.125977 0.127358
25 12.5 -47.45442 0.6666667 -0.6666667 -0.3333333 0.002358 0.249023
-25 12.5 -42.45442 -0.6666667 -0.6666667 0.3333333 0.124023 0.127358
-25 12.5 -47.45442 -0.4082483 -0.4082483 -0.8164966 0.124023 0.249023
25 12.5 47.20702 0.4082483 -0.4082483 0.8164966 0.250977 0.252358
-25 17.5 47.20702 -0.4082483 0.4082483 0.8164966 0.372642 0.374023
25 17.5 47.20702 0.6666667 0.6666667 0.3333333 0.842773 0.153892
25 12.5 42.20702 0.6666667 -0.6666667 -0.3333333 0.872642 0.125977
25 17.5 47.20702 0.6666667 0.6666667 0.3333333 0.844727 0.153892
25 12.5 47.20702 0.4082483 -0.4082483 0.8164966 0.844727 0.125977
25 17.5 42.20702 0.4082483 0.4082483 -0.8164966 0.375977 0.377358
-25 12.5 42.20702 -0.4082483 -0.4082483 -0.8164966 0.252358 0.499023
25 17.5 42.20702 0.4082483 0.4082483 -0.8164966 0.374023 0.377358
25 12.5 42.20702 0.6666667 -0.6666667 -0.3333333 0.374023 0.499023
-25 12.5 47.20702 -0.6666667 -0.6666667 0.3333333 0.813477 0.185142
-25 17.5 47.20702 -0.4082483 0.4082483 0.8164966 0.813477 0.157227
-25 17.5 42.20702 -0.6666667 0.6666667 -0.3333333 0.841392 0.157227
-25 12.5 47.20702 -0.6666667 -0.6666667 0.3333333 0.813477 0.127358
-25 17.5 42.20702 -0.6666667 0.6666667 -0.3333333 0.841392 0.155273
-25 12.5 42.20702 -0.4082483 -0.4082483 -0.8164966 0.813477 0.155273
25 17.5 47.20702 0.6666667 0.6666667 0.3333333 0.247642 0.499023
25 17.5 42.20702 0.4082483 0.4082483 -0.8164966 0.125977 0.499023
-25 17.5 42.20702 -0.6666667 0.6666667 -0.3333333 0.125977 0.377358
25 17.5 47.20702 0.6666667 0.6666667 0.3333333 0.002358 0.499023
-25 17.5 42.20702 -0.6666667 0.6666667 -0.3333333 0.124023 0.377358
-25 17.5 47.20702 -0.4082483 0.4082483 0.8164966 0.124023 0.499023
25 12.5 42.20702 0.6666667 -0.6666667 -0.3333333 0.249023 0.252358
25 12.5 47.20702 0.4082483 -0.4082483 0.8164966 0.249023 0.374023
-25 12.5 47.20702 -0.6666667 -0.6666667 0.3333333 0.127358 0.374023
25 12.5 42.20702 0.6666667 -0.6666667 -0.3333333 0.249023 0.497642
-25 12.5 47.20702 -0.6666667 -0.6666667 0.3333333 0.127358 0.375977
-25 12.5 42.20702 -0.4082483 -0.4082483 -0.8164966 0.249023 0.375977
2.5 12.5 45 0.4082483 -0.4082483 0.8164966 0.810142 0.188477
-2.5 17.5 45 -0.4082483 0.4082483 0.8164966 0.782227 0.216392
2.5 17.5 45 0.6666667 0.6666667 0.3333333 0.375977 0.127358
2.5 12.5 -45 0.6666667 -0.6666667 -0.3333333 0.252358 0.249023
2.5 17.5 45 0.6666667 0.6666667 0.3333333 0.374023 0.127358
2.5 12.5 45 0.4082483 -0.4082483 0.8164966 0.374023 0.249023
2.5 17.5 -45 0.4082483 0.4082483 -0.8164966 0.778892 0.219727
-2.5 12.5 -45 -0.4082483 -0.4082483 -0.8164966 0.750977 0.189858
2.5 17.5 -45 0.4082483 0.4082483 -0.8164966 0.778892 0.217773
2.5 12.5 -45 0.6666667 -0.6666667 -0.3333333 0.750977 0.217773
-2.5 12.5 45 -0.6666667 -0.6666667 0.3333333 0.499023 0.002358
-2.5 17.5 45 -0.4082483 0.4082483 0.8164966 0.499023 0.124023
-2.5 17.5 -45 -0.6666667 0.6666667 -0.3333333 0.377358 0.124023
-2.5 12.5 45 -0.6666667 -0.6666667 0.3333333 0.499023 0.247642
-2.5 17.5 -45 -0.6666667 0.6666667 -0.3333333 0.377358 0.125977
-2.5 12.5 -45 -0.4082483 -0.4082483 -0.8164966 0.499023 0.125977
2.5 17.5 45 0.6666667 0.6666667 0.3333333 0.499023 0.252358
2.5 17.5 -45 0.4082483 0.4082483 -0.8164966 0.499023 0.374023
-2.5 17.5 -45 -0.6666667 0.6666667 -0.3333333 0.377358 0.374023
2.5 17.5 45 0.6666667 0.6666667 0.3333333 0.499023 0.497642
-2.5 17.5 -45 -0.6666667 0.6666667 -0.3333333 0.377358 0.375977
-2.5 17.5 45 -0.4082483 0.4082483 0.8164966 0.499023 0.375977
2.5 12.5 -45 0.6666667 -0.6666667 -0.3333333 0.252358 0.250977
2.5 12.5 45 0.4082483 -0.4082483 0.8164966 0.374023 0.250977
-2.5 12.5 45 -0.6666667 -0.6666667 0.3333333 0.374023 0.372642
2.5 12.5 -45 0.6666667 -0.6666667 -0.3333333 0.497642 0.250977
-2.5 12.5 45 -0.6666667 -0.6666667 0.3333333 0.375977 0.372642
-2.5 12.5 -45 -0.4082483 -0.4082483 -0.8164966 0.375977 0.250977
35 23.75879 55 0.4082483 -0.4082483 0.8164966 0.752358 0.000977
-35 26.25879 55 -0.4082483 0.4082483 0.8164966 0.872642 0.000977
-35 23.75879 -55 -0.4082483 -0.4082483 -0.8164966 0.875977 0.122642
35 26.25879 -55 0.4082483 0.4082483 -0.8164966 0.875977 0.002358
35 26.25879 55 0.6666667 0.6666667 0.3333333 0.497642 0.999023
35 26.25879 -55 0.4082483 0.4082483 -0.8164966 0.000977 0.999023
-35 26.25879 -55 -0.6666667 0.6666667 -0.3333333 0.000977 0.502358
35 26.25879 55 0.6666667 0.6666667 0.3333333 0.499023 0.997642
-35 26.25879 -55 -0.6666667 0.6666667 -0.3333333 0.002358 0.500977
-35 26.25879 55 -0.4082483 0.4082483 0.8164966 0.499023 0.500977
35 23.75879 -55 0.6666667 -0.6666667 -0.3333333 0.997642 0.999023
35 23.75879 55 0.4082483 -0.4082483 0.8164966 0.500977 0.999023
-35 23.75879 55 -0.6666667 -0.6666667 0.3333333 0.500977 0.502358
35 23.75879 -55 0.6666667 -0.6666667 -0.3333333 0.999023 0.997642
-35 23.75879 55 -0.6666667 -0.6666667 0.3333333 0.502358 0.500977
-35 23.75879 -55 -0.4082483 -0.4082483 -0.8164966 0.999023 0.500977
35 23.75879 -55 0.6666667 -0.6666667 -0.3333333 0.249023 0.002358
35 26.25879 -55 0.4082483 0.4082483 -0.8164966 0.249023 0.124023
35 26.25879 55 0.6666667 0.6666667 0.3333333 0.127358 0.124023
35 23.75879 -55 0.6666667 -0.6666667 -0.3333333 0.249023 0.247642
35 26.25879 55 0.6666667 0.6666667 0.3333333 0.127358 0.125977
35 23.75879 55 0.4082483 -0.4082483 0.8164966 0.249023 0.125977
-35 23.75879 55 -0.6666667 -0.6666667 0.3333333 0.002358 0.000977
-35 26.25879 55 -0.4082483 0.4082483 0.8164966 0.124023 0.000977
-35 26.25879 -55 -0.6666667 0.6666667 -0.3333333 0.124023 0.122642
-35 23.75879 55 -0.6666667 -0.6666667 0.3333333 0.247642 0.000977
-35 26.25879 -55 -0.6666667 0.6666667 -0.3333333 0.125977 0.122642
-35 23.75879 -55 -0.4082483 -0.4082483 -0.8164966 0.125977 0.000977
-25 -25 47.5 0.4082483 -0.4082483 0.8164966 0.497642 0.000977
-30 25 47.5 -0.4082483 0.4082483 0.8164966 0.375977 0.122642
-25 25 47.5 0.6666667 0.6666667 0.3333333 0.372642 0.125977
-25 -25 42.5 0.6666667 -0.6666667 -0.3333333 0.250977 0.002358
-25 25 47.5 0.6666667 0.6666667 0.3333333 0.372642 0.124023
-25 -25 47.5 0.4082483 -0.4082483 0.8164966 0.250977 0.124023
-25 25 42.5 0.4082483 0.4082483 -0.8164966 0.624023 0.372642
-30 -25 42.5 -0.4082483 -0.4082483 -0.8164966 0.747642 0.250977
-25 25 42.5 0.4082483 0.4082483 -0.8164966 0.625977 0.372642
-25 -25 42.5 0.6666667 -0.6666667 -0.3333333 0.625977 0.250977
-30 -25 47.5 -0.6666667 -0.6666667 0.3333333 0.500977 0.497642
-30 25 47.5 -0.4082483 0.4082483 0.8164966 0.500977 0.375977
-30 25 42.5 -0.6666667 0.6666667 -0.3333333 0.622642 0.375977
-30 -25 47.5 -0.6666667 -0.6666667 0.3333333 0.500977 0.252358
-30 25 42.5 -0.6666667 0.6666667 -0.3333333 0.622642 0.374023
-30 -25 42.5 -0.4082483 -0.4082483 -0.8164966 0.500977 0.374023
-25 25 47.5 0.6666667 0.6666667 0.3333333 0.750977 0.185142
-25 25 42.5 0.4082483 0.4082483 -0.8164966 0.750977 0.157227
-30 25 42.5 -0.6666667 0.6666667 -0.3333333 0.778892 0.157227
-25 25 47.5 0.6666667 0.6666667 0.3333333 0.750977 0.127358
-30 25 42.5 -0.6666667 0.6666667 -0.3333333 0.778892 0.155273
-30 25 47.5 -0.4082483 0.4082483 0.8164966 0.750977 0.155273
-25 -25 42.5 0.6666667 -0.6666667 -0.3333333 0.810142 0.186523
-25 -25 47.5 0.4082483 -0.4082483 0.8164966 0.782227 0.186523
-30 -25 47.5 -0.6666667 -0.6666667 0.3333333 0.782227 0.158608
-25 -25 42.5 0.6666667 -0.6666667 -0.3333333 0.752358 0.186523
-30 -25 47.5 -0.6666667 -0.6666667 0.3333333 0.780273 0.158608
-30 -25 42.5 -0.4082483 -0.4082483 -0.8164966 0.780273 0.186523
30 -25 47.5 0.4082483 -0.4082483 0.8164966 0.500977 0.002358
25 25 47.5 -0.4082483 0.4082483 0.8164966 0.622642 0.124023
30 25 47.5 0.6666667 0.6666667 0.3333333 0.625977 0.127358
30 -25 42.5 0.6666667 -0.6666667 -0.3333333 0.502358 0.249023
30 25 47.5 0.6666667 0.6666667 0.3333333 0.624023 0.127358
30 -25 47.5 0.4082483 -0.4082483 0.8164966 0.624023 0.249023
30 25 42.5 0.4082483 0.4082483 -0.8164966 0.872642 0.375977
25 -25 42.5 -0.4082483 -0.4082483 -0.8164966 0.750977 0.252358
30 25 42.5 0.4082483 0.4082483 -0.8164966 0.872642 0.374023
30 -25 42.5 0.6666667 -0.6666667 -0.3333333 0.750977 0.374023
25 -25 47.5 -0.6666667 -0.6666667 0.3333333 0.997642 0.499023
25 25 47.5 -0.4082483 0.4082483 0.8164966 0.875977 0.499023
25 25 42.5 -0.6666667 0.6666667 -0.3333333 0.875977 0.377358
25 -25 47.5 -0.6666667 -0.6666667 0.3333333 0.752358 0.499023
25 25 42.5 -0.6666667 0.6666667 -0.3333333 0.874023 0.377358
25 -25 42.5 -0.4082483 -0.4082483 -0.8164966 0.874023 0.499023
30 25 47.5 0.6666667 0.6666667 0.3333333 0.752358 0.063477
30 25 42.5 0.4082483 0.4082483 -0.8164966 0.780273 0.063477
25 25 42.5 -0.6666667 0.6666667 -0.3333333 0.780273 0.091392
30 25 47.5 0.6666667 0.6666667 0.3333333 0.810142 0.063477
25 25 42.5 -0.6666667 0.6666667 -0.3333333 0.782227 0.091392
25 25 47.5 -0.4082483 0.4082483 0.8164966 0.782227 0.063477
30 -25 42.5 0.6666667 -0.6666667 -0.3333333 0.750977 0.122642
30 -25 47.5 0.4082483 -0.4082483 0.8164966 0.750977 0.094727
25 -25 47.5 -0.6666667 -0.6666667 0.3333333 0.778892 0.094727
30 -25 42.5 0.6666667 -0.6666667 -0.3333333 0.750977 0.064858
25 -25 47.5 -0.6666667 -0.6666667 0.3333333 0.778892 0.092773
25 -25 42.5 -0.4082483 -0.4082483 -0.8164966 0.750977 0.092773
-25 -25 -42.5 0.4082483 -0.4082483 0.8164966 0.502358 0.499023
-30 25 -42.5 -0.4082483 0.4082483 0.8164966 0.624023 0.377358
-25 25 -42.5 0.6666667 0.6666667 0.3333333 0.627358 0.374023
-25 -25 -47.5 0.6666667 -0.6666667 -0.3333333 0.749023 0.497642
-25 25 -42.5 0.6666667 0.6666667 0.3333333 0.627358 0.375977
-25 -25 -42.5 0.4082483 -0.4082483 0.8164966 0.749023 0.375977
-25 25 -47.5 0.4082483 0.4082483 -0.8164966 0.875977 0.127358
-30 -25 -47.5 -0.4082483 -0.4082483 -0.8164966 0.752358 0.249023
-25 25 -47.5 0.4082483 0.4082483 -0.8164966 0.874023 0.127358
-25 -25 -47.5 0.6666667 -0.6666667 -0.3333333 0.874023 0.249023
-30 -25 -42.5 -0.6666667 -0.6666667 0.3333333 0.999023 0.002358
-30 25 -42.5 -0.4082483 0.4082483 0.8164966 0.999023 0.124023
-30 25 -47.5 -0.6666667 0.6666667 -0.3333333 0.877358 0.124023
-30 -25 -42.5 -0.6666667 -0.6666667 0.3333333 0.999023 0.247642
-30 25 -47.5 -0.6666667 0.6666667 -0.3333333 0.877358 0.125977
-30 -25 -47.5 -0.4082483 -0.4082483 -0.8164966 0.999023 0.125977
-25 25 -42.5 0.6666667 0.6666667 0.3333333 0.750977 0.060142
-25 25 -47.5 0.4082483 0.4082483 -0.8164966 0.750977 0.032227
-30 25 -47.5 -0.6666667 0.6666667 -0.3333333 0.778892 0.032227
-25 25 -42.5 0.6666667 0.6666667 0.3333333 0.750977 0.002358
-30 25 -47.5 -0.6666667 0.6666667 -0.3333333 0.778892 0.030273
-30 25 -42.5 -0.4082483 0.4082483 0.8164966 0.750977 0.030273
-25 -25 -47.5 0.6666667 -0.6666667 -0.3333333 0.810142 0.061523
-25 -25 -42.5 0.4082483 -0.4082483 0.8164966 0.782227 0.061523
-30 -25 -42.5 -0.6666667 -0.6666667 0.3333333 0.782227 0.033608
-25 -25 -47.5 0.6666667 -0.6666667 -0.3333333 0.752358 0.061523
-30 -25 -42.5 -0.6666667 -0.6666667 0.3333333 0.780273 0.033608
-30 -25 -47.5 -0.4082483 -0.4082483 -0.8164966 0.780273 0.061523
30 -25 -42.5 0.4082483 -0.4082483 0.8164966 0.999023 0.497642
25 25 -42.5 -0.4082483 0.4082483 0.8164966 0.877358 0.375977
30 25 -42.5 0.6666667 0.6666667 0.3333333 0.874023 0.372642
30 -25 -47.5 0.6666667 -0.6666667 -0.3333333 0.997642 0.250977
30 25 -42.5 0.6666667 0.6666667 0.3333333 0.875977 0.372642
30 -25 -42.5 0.4082483 -0.4082483 0.8164966 0.875977 0.250977
30 25 -47.5 0.4082483 0.4082483 -0.8164966 0.627358 0.124023
25 -25 -47.5 -0.4082483 -0.4082483 -0.8164966 0.749023 0.247642
30 25 -47.5 0.4082483 0.4082483 -0.8164966 0.627358 0.125977
30 -25 -47.5 0.6666667 -0.6666667 -0.3333333 0.749023 0.125977
25 -25 -42.5 -0.6666667 -0.6666667 0.3333333 0.502358 0.000977
25 25 -42.5 -0.4082483 0.4082483 0.8164966 0.624023 0.000977
25 25 -47.5 -0.6666667 0.6666667 -0.3333333 0.624023 0.122642
25 -25 -42.5 -0.6666667 -0.6666667 0.3333333 0.747642 0.000977
25 25 -47.5 -0.6666667 0.6666667 -0.3333333 0.625977 0.122642
25 -25 -47.5 -0.4082483 -0.4082483 -0.8164966 0.625977 0.000977
30 25 -42.5 0.6666667 0.6666667 0.3333333 0.813477 0.122642
30 25 -47.5 0.4082483 0.4082483 -0.8164966 0.813477 0.094727
25 25 -47.5 -0.6666667 0.6666667 -0.3333333 0.841392 0.094727
30 25 -42.5 0.6666667 0.6666667 0.3333333 0.813477 0.064858
25 25 -47.5 -0.6666667 0.6666667 -0.3333333 0.841392 0.092773
25 25 -42.5 -0.4082483 0.4082483 0.8164966 0.813477 0.092773
30 -25 -47.5 0.6666667 -0.6666667 -0.3333333 0.872642 0.124023
30 -25 -42.5 0.4082483 -0.4082483 0.8164966 0.844727 0.124023
25 -25 -42.5 -0.6666667 -0.6666667 0.3333333 0.844727 0.096108
30 -25 -47.5 0.6666667 -0.6666667 -0.3333333 0.814858 0.124023
25 -25 -42.5 -0.6666667 -0.6666667 0.3333333 0.842773 0.096108
25 -25 -47.5 -0.4082483 -0.4082483 -0.8164966 0.842773 0.124023
3 2 3 1 
3 64 65 0 
3 4 5 66 
3 67 68 69 
3 6 7 70 
3 71 72 73 
3 74 75 76 
3 77 78 79 
3 80 81 82 
3 83 84 85 
3 86 87 88 
3 89 90 91 
3 10 11 9 
3 92 93 8 
3 12 13 94 
3 95 96 97 
3 14 15 98 
3 99 100 101 
3 102 103 104 
3 105 106 107 
3 108 109 110 
3 111 112 113 
3 114 115 116 
3 117 118 119 
3 18 19 17 
3 120 121 16 
3 20 21 122 
3 123 124 125 
3 22 23 126 
3 127 128 129 
3 130 131 132 
3 133 134 135 
3 136 137 138 
3 139 140 141 
3 142 143 144 
3 145 146 147 
3 26 27 25 
3 148 149 24 
3 30 31 29 
3 150 151 28 
3 152 153 154 
3 155 156 157 
3 158 159 160 
3 161 162 163 
3 164 165 166 
3 167 168 169 
3 170 171 172 
3 173 174 175 
3 34 35 33 
3 176 177 32 
3 36 37 178 
3 179 180 181 
3 38 39 182 
3 183 184 185 
3 186 187 188 
3 189 190 191 
3 192 193 194 
3 195 196 197 
3 198 199 200 
3 201 202 203 
3 42 43 41 
3 204 205 40 
3 44 45 206 
3 207 208 209 
3 46 47 210 
3 211 212 213 
3 214 215 216 
3 217 218 219 
3 220 221 222 
3 223 224 225 
3 226 227 228 
3 229 230 231 
3 50 51 49 
3 232 233 48 
3 52 53 234 
3 235 236 237 
3 54 55 238 
3 239 240 241 
3 242 243 244 
3 245 246 247 
3 248 249 250 
3 251 252 253 
3 254 255 256 
3 257 258 259 
3 58 59 57 
3 260 261 56 
3 60 61 262 
3 263 264 265 
3 62 63 266 
3 267 268 269 
3 270 271 272 
3 273 274 275 
3 276 277 278 
3 279 280 281 
3 282 283 284 
3 285 286 287 
